<svg xmlns="http://www.w3.org/2000/svg" viewBox="0 0 1600 900" role="img" aria-labelledby="title description">
  <title id="title">GOJO.DEV WhatsApp CRM dashboard illustration</title>
  <desc id="description">A dark green messaging dashboard with a contact list, conversation panel and message composer.</desc>
  <defs>
    <linearGradient id="background" x1="0" y1="0" x2="1" y2="1">
      <stop offset="0" stop-color="#050706"/>
      <stop offset="0.54" stop-color="#0a1710"/>
      <stop offset="1" stop-color="#061009"/>
    </linearGradient>
    <linearGradient id="panel" x1="0" y1="0" x2="0" y2="1">
      <stop offset="0" stop-color="#14231a"/>
      <stop offset="1" stop-color="#0c1710"/>
    </linearGradient>
    <filter id="glow" x="-50%" y="-50%" width="200%" height="200%">
      <feGaussianBlur stdDeviation="18"/>
    </filter>
  </defs>
  <rect width="1600" height="900" fill="url(#background)"/>
  <circle cx="1375" cy="110" r="205" fill="#22ff88" opacity=".08" filter="url(#glow)"/>
  <circle cx="155" cy="790" r="240" fill="#22ff88" opacity=".055" filter="url(#glow)"/>

  <rect x="92" y="72" width="1416" height="756" rx="38" fill="#07100a" stroke="#2a4935" stroke-width="2"/>
  <rect x="92" y="72" width="1416" height="74" rx="38" fill="#0d1911"/>
  <rect x="92" y="111" width="1416" height="35" fill="#0d1911"/>
  <circle cx="138" cy="109" r="8" fill="#22ff88"/>
  <circle cx="166" cy="109" r="8" fill="#22ff88" opacity=".45"/>
  <circle cx="194" cy="109" r="8" fill="#22ff88" opacity=".18"/>
  <text x="246" y="118" fill="#edf8f0" font-family="Arial, sans-serif" font-size="24" font-weight="700">GOJO.DEV CRM</text>
  <text x="1348" y="116" fill="#90a497" font-family="Arial, sans-serif" font-size="17">Connected</text>
  <circle cx="1325" cy="109" r="7" fill="#22ff88"/>

  <rect x="92" y="146" width="116" height="682" fill="#09130c"/>
  <rect x="208" y="146" width="430" height="682" fill="url(#panel)"/>
  <line x1="208" y1="146" x2="208" y2="828" stroke="#233a2b" stroke-width="2"/>
  <line x1="638" y1="146" x2="638" y2="828" stroke="#233a2b" stroke-width="2"/>

  <rect x="122" y="188" width="56" height="56" rx="17" fill="#22ff88" opacity=".14"/>
  <path d="M140 214h20M140 223h14M140 205h25" stroke="#22ff88" stroke-width="4" stroke-linecap="round"/>
  <rect x="122" y="274" width="56" height="56" rx="17" fill="#ffffff" opacity=".04"/>
  <circle cx="150" cy="297" r="11" fill="none" stroke="#87a291" stroke-width="3"/>
  <path d="M131 322c5-10 13-15 19-15s14 5 19 15" fill="none" stroke="#87a291" stroke-width="3" stroke-linecap="round"/>
  <rect x="122" y="360" width="56" height="56" rx="17" fill="#ffffff" opacity=".04"/>
  <path d="M136 379h28v20h-28zM141 404h18" fill="none" stroke="#87a291" stroke-width="3" stroke-linejoin="round"/>
  <rect x="122" y="728" width="56" height="56" rx="17" fill="#ffffff" opacity=".04"/>
  <circle cx="150" cy="756" r="11" fill="none" stroke="#87a291" stroke-width="3"/>
  <path d="M150 738v7M150 767v7M132 756h7M161 756h7" stroke="#87a291" stroke-width="3" stroke-linecap="round"/>

  <text x="244" y="201" fill="#edf8f0" font-family="Arial, sans-serif" font-size="27" font-weight="700">Inbox</text>
  <text x="244" y="230" fill="#8da092" font-family="Arial, sans-serif" font-size="16">Customer conversations</text>
  <rect x="244" y="254" width="354" height="48" rx="15" fill="#07100a" stroke="#294331"/>
  <circle cx="269" cy="278" r="8" fill="none" stroke="#748c7b" stroke-width="2"/>
  <line x1="275" y1="284" x2="282" y2="291" stroke="#748c7b" stroke-width="2" stroke-linecap="round"/>
  <text x="298" y="284" fill="#748c7b" font-family="Arial, sans-serif" font-size="16">Search conversations</text>

  <rect x="226" y="326" width="394" height="110" rx="21" fill="#22ff88" opacity=".105" stroke="#22ff88" stroke-opacity=".35"/>
  <circle cx="273" cy="371" r="25" fill="#22ff88"/>
  <text x="273" y="379" text-anchor="middle" fill="#062010" font-family="Arial, sans-serif" font-size="20" font-weight="800">N</text>
  <text x="316" y="359" fill="#f2fbf5" font-family="Arial, sans-serif" font-size="18" font-weight="700">New website enquiry</text>
  <text x="316" y="388" fill="#9db1a2" font-family="Arial, sans-serif" font-size="15">I'd like a school website...</text>
  <text x="552" y="355" fill="#22ff88" font-family="Arial, sans-serif" font-size="13">Now</text>
  <circle cx="577" cy="400" r="12" fill="#22ff88"/>
  <text x="577" y="405" text-anchor="middle" fill="#062010" font-family="Arial, sans-serif" font-size="12" font-weight="800">2</text>

  <g fill="#0d1911">
    <rect x="226" y="452" width="394" height="102" rx="21"/>
    <rect x="226" y="570" width="394" height="102" rx="21"/>
    <rect x="226" y="688" width="394" height="102" rx="21"/>
  </g>
  <g fill="#1c3123">
    <circle cx="273" cy="503" r="25"/>
    <circle cx="273" cy="621" r="25"/>
    <circle cx="273" cy="739" r="25"/>
  </g>
  <g fill="#e8f4ec" font-family="Arial, sans-serif" font-size="18" font-weight="700">
    <text x="316" y="492">Project brief</text>
    <text x="316" y="610">Portfolio request</text>
    <text x="316" y="728">Support follow-up</text>
  </g>
  <g fill="#819588" font-family="Arial, sans-serif" font-size="15">
    <text x="316" y="521">Files and requirements received</text>
    <text x="316" y="639">Can we discuss the timeline?</text>
    <text x="316" y="757">Thank you for the update</text>
  </g>

  <rect x="638" y="146" width="870" height="88" fill="#0b1710"/>
  <circle cx="690" cy="190" r="27" fill="#22ff88" opacity=".16"/>
  <text x="690" y="198" text-anchor="middle" fill="#22ff88" font-family="Arial, sans-serif" font-size="20" font-weight="800">N</text>
  <text x="735" y="183" fill="#edf8f0" font-family="Arial, sans-serif" font-size="19" font-weight="700">New website enquiry</text>
  <text x="735" y="208" fill="#7f9486" font-family="Arial, sans-serif" font-size="14">Active now</text>
  <circle cx="1445" cy="190" r="20" fill="#ffffff" opacity=".045"/>
  <circle cx="1445" cy="190" r="4" fill="#8ca091"/>
  <circle cx="1445" cy="177" r="4" fill="#8ca091"/>
  <circle cx="1445" cy="203" r="4" fill="#8ca091"/>

  <g fill="#0e1f15">
    <rect x="694" y="281" width="380" height="76" rx="22"/>
    <rect x="694" y="377" width="450" height="96" rx="22"/>
  </g>
  <text x="722" y="315" fill="#dfeae2" font-family="Arial, sans-serif" font-size="17">Hi, I need a modern school website.</text>
  <text x="722" y="340" fill="#718779" font-family="Arial, sans-serif" font-size="13">10:42</text>
  <text x="722" y="412" fill="#dfeae2" font-family="Arial, sans-serif" font-size="17">Can it include admissions, facilities,</text>
  <text x="722" y="438" fill="#dfeae2" font-family="Arial, sans-serif" font-size="17">a gallery and WhatsApp contact?</text>
  <text x="722" y="460" fill="#718779" font-family="Arial, sans-serif" font-size="13">10:43</text>

  <rect x="980" y="509" width="456" height="104" rx="22" fill="#075d3b"/>
  <text x="1008" y="545" fill="#f0fff6" font-family="Arial, sans-serif" font-size="17">Absolutely. I'll plan a responsive</text>
  <text x="1008" y="572" fill="#f0fff6" font-family="Arial, sans-serif" font-size="17">experience around those priorities.</text>
  <text x="1367" y="596" fill="#9cdabb" font-family="Arial, sans-serif" font-size="13">10:45 ✓✓</text>

  <rect x="674" y="730" width="798" height="66" rx="21" fill="#0c1b12" stroke="#253c2d"/>
  <circle cx="714" cy="763" r="18" fill="#ffffff" opacity=".045"/>
  <path d="M707 763h14M714 756v14" stroke="#8ca091" stroke-width="2.5" stroke-linecap="round"/>
  <text x="751" y="769" fill="#708578" font-family="Arial, sans-serif" font-size="17">Type a message...</text>
  <circle cx="1428" cy="763" r="23" fill="#22ff88"/>
  <path d="M1418 763l20-9-7 20-4-8z" fill="#062010"/>
</svg>
